<svg width="15" height="13" viewBox="0 0 15 13" fill="none" xmlns="http://www.w3.org/2000/svg">
<path d="M0 10.9286C0 12.0214 0.975 12.8571 2.25 12.8571H12.75C14.025 12.8571 15 12.0214 15 10.9286V5.78571H0V10.9286ZM12.75 1.28571H11.25V0.642857C11.25 0.257143 10.95 0 10.5 0C10.05 0 9.75 0.257143 9.75 0.642857V1.28571H5.25V0.642857C5.25 0.257143 4.95 0 4.5 0C4.05 0 3.75 0.257143 3.75 0.642857V1.28571H2.25C0.975 1.28571 0 2.12143 0 3.21429V4.5H15V3.21429C15 2.12143 14.025 1.28571 12.75 1.28571Z" fill="#70A296"/>
</svg>
