<svg width="17" height="12" viewBox="0 0 17 12" fill="none" xmlns="http://www.w3.org/2000/svg">
<path d="M10.9638 11.0724C11.017 11.1629 11.0471 11.2677 11.0511 11.3757C11.0551 11.4836 11.0327 11.5908 10.9863 11.6858C10.9399 11.7808 10.8713 11.8602 10.7876 11.9155C10.7039 11.9708 10.6084 12 10.511 12H0.540557C0.443174 12 0.347603 11.9708 0.26394 11.9155C0.180278 11.8602 0.11163 11.7808 0.0652509 11.6858C0.0188715 11.5908 -0.00351774 11.4836 0.00044872 11.3757C0.00441518 11.2677 0.03459 11.1629 0.0877852 11.0724C0.848783 9.77256 1.96813 8.78062 3.27881 8.24457C2.55424 7.7093 2.00414 6.92948 1.70985 6.02045C1.41557 5.11141 1.39273 4.12142 1.64471 3.19687C1.89668 2.27231 2.4101 1.46228 3.10904 0.886562C3.80797 0.310843 4.65532 0 5.52577 0C6.39623 0 7.24358 0.310843 7.94251 0.886562C8.64145 1.46228 9.15487 2.27231 9.40685 3.19687C9.65882 4.12142 9.63598 5.11141 9.3417 6.02045C9.04741 6.92948 8.49731 7.7093 7.77274 8.24457C9.08342 8.78062 10.2028 9.77256 10.9638 11.0724ZM16.9045 11.0611C16.1433 9.76679 15.0265 8.77911 13.7196 8.24457C14.575 7.60519 15.1787 6.62812 15.4077 5.51225C15.6368 4.39637 15.4741 3.22557 14.9526 2.23816C14.4312 1.25074 13.5903 0.520925 12.601 0.197268C11.6118 -0.12639 10.5485 -0.0195642 9.62775 0.496C9.59254 0.516173 9.56176 0.54469 9.53759 0.57953C9.51341 0.61437 9.49644 0.654682 9.48786 0.69761C9.47928 0.740539 9.47932 0.785035 9.48796 0.827947C9.4966 0.87086 9.51364 0.911139 9.53787 0.945932C10.2226 1.89364 10.6158 3.05974 10.6599 4.27341C10.704 5.48708 10.3968 6.68455 9.78318 7.69041C9.74352 7.75614 9.72886 7.8366 9.74241 7.91427C9.75595 7.99193 9.79659 8.06052 9.85549 8.10509C10.6556 8.72468 11.3405 9.50964 11.8727 10.417C12.0873 10.7818 12.175 11.2208 12.1193 11.6521C12.1131 11.695 12.1153 11.7389 12.1258 11.7807C12.1364 11.8226 12.155 11.8614 12.1803 11.8945C12.2057 11.9276 12.2373 11.9542 12.2729 11.9724C12.3084 11.9906 12.3471 12 12.3863 12H16.4612C16.5803 12 16.696 11.9565 16.7904 11.8761C16.8849 11.7957 16.9528 11.6829 16.9836 11.5553C17.0024 11.4714 17.0051 11.384 16.9914 11.2989C16.9778 11.2138 16.9482 11.1328 16.9045 11.0611Z" fill="#70A296"/>
</svg>
