<svg width="53" height="49" viewBox="0 0 53 49" fill="none" xmlns="http://www.w3.org/2000/svg">
<path opacity="0.9" d="M49.6875 8.28125H9.9375C8.10806 8.28125 6.625 9.76431 6.625 11.5938V44.7188C6.625 46.5482 8.10806 48.0312 9.9375 48.0312H49.6875C51.5169 48.0312 53 46.5482 53 44.7188V11.5938C53 9.76431 51.5169 8.28125 49.6875 8.28125Z" fill="#60998A"/>
<path fill-rule="evenodd" clip-rule="evenodd" d="M44.7188 3.3125H1.65625C1.21699 3.3125 0.795712 3.487 0.485105 3.7976C0.174498 4.10821 0 4.52949 0 4.96875V41.4062C0 41.8455 0.174498 42.2668 0.485105 42.5774C0.795712 42.888 1.21699 43.0625 1.65625 43.0625H44.7188C45.158 43.0625 45.5793 42.888 45.8899 42.5774C46.2005 42.2668 46.375 41.8455 46.375 41.4062V4.96875C46.375 4.52949 46.2005 4.10821 45.8899 3.7976C45.5793 3.487 45.158 3.3125 44.7188 3.3125ZM3.3125 39.75V6.625H43.0625V39.75H3.3125Z" fill="black"/>
<path fill-rule="evenodd" clip-rule="evenodd" d="M44.7188 3.3125H1.65625C1.21699 3.3125 0.795712 3.487 0.485105 3.7976C0.174498 4.10821 0 4.52949 0 4.96875V14.9062C0 15.3455 0.174498 15.7668 0.485105 16.0774C0.795712 16.388 1.21699 16.5625 1.65625 16.5625H44.7188C45.158 16.5625 45.5793 16.388 45.8899 16.0774C46.2005 15.7668 46.375 15.3455 46.375 14.9062V4.96875C46.375 4.52949 46.2005 4.10821 45.8899 3.7976C45.5793 3.487 45.158 3.3125 44.7188 3.3125ZM5.3125 13.25C4.20793 13.25 3.3125 12.3546 3.3125 11.25V8.625C3.3125 7.52043 4.20793 6.625 5.3125 6.625H41.0625C42.1671 6.625 43.0625 7.52043 43.0625 8.625V11.25C43.0625 12.3546 42.1671 13.25 41.0625 13.25H5.3125Z" fill="black"/>
<path d="M8.28125 6.625H11.5938C12.033 6.625 12.4543 6.4505 12.7649 6.1399C13.0755 5.82929 13.25 5.40801 13.25 4.96875V1.65625C13.25 1.21699 13.0755 0.795712 12.7649 0.485105C12.4543 0.174498 12.033 0 11.5938 0H8.28125C7.84199 0 7.42071 0.174498 7.1101 0.485105C6.7995 0.795712 6.625 1.21699 6.625 1.65625V4.96875C6.625 5.40801 6.7995 5.82929 7.1101 6.1399C7.42071 6.4505 7.84199 6.625 8.28125 6.625ZM34.7812 6.625H38.0938C38.533 6.625 38.9543 6.4505 39.2649 6.1399C39.5755 5.82929 39.75 5.40801 39.75 4.96875V1.65625C39.75 1.21699 39.5755 0.795712 39.2649 0.485105C38.9543 0.174498 38.533 0 38.0938 0H34.7812C34.342 0 33.9207 0.174498 33.6101 0.485105C33.2995 0.795712 33.125 1.21699 33.125 1.65625V4.96875C33.125 5.40801 33.2995 5.82929 33.6101 6.1399C33.9207 6.4505 34.342 6.625 34.7812 6.625ZM9.9375 26.5C9.05897 26.5 8.21642 26.151 7.59521 25.5298C6.974 24.9086 6.625 24.066 6.625 23.1875C6.625 22.309 6.974 21.4664 7.59521 20.8452C8.21642 20.224 9.05897 19.875 9.9375 19.875C10.816 19.875 11.6586 20.224 12.2798 20.8452C12.901 21.4664 13.25 22.309 13.25 23.1875C13.25 24.066 12.901 24.9086 12.2798 25.5298C11.6586 26.151 10.816 26.5 9.9375 26.5Z" fill="black"/>
</svg>
