<svg width="21" height="24" viewBox="0 0 21 24" fill="none" xmlns="http://www.w3.org/2000/svg">
<path d="M10.2917 0L20.5833 5.95833V17.875L10.2917 23.8333L0 17.875V5.95833L10.2917 0ZM10.2917 2.50358L2.16667 7.20742V16.6259L10.2917 21.3297L18.4167 16.6259V7.20742L10.2917 2.50358ZM10.2917 16.25C9.14239 16.25 8.04019 15.7935 7.22754 14.9808C6.41488 14.1681 5.95833 13.0659 5.95833 11.9167C5.95833 10.7674 6.41488 9.66519 7.22754 8.85254C8.04019 8.03988 9.14239 7.58333 10.2917 7.58333C11.4409 7.58333 12.5431 8.03988 13.3558 8.85254C14.1685 9.66519 14.625 10.7674 14.625 11.9167C14.625 13.0659 14.1685 14.1681 13.3558 14.9808C12.5431 15.7935 11.4409 16.25 10.2917 16.25ZM10.2917 14.0833C10.8663 14.0833 11.4174 13.8551 11.8237 13.4487C12.2301 13.0424 12.4583 12.4913 12.4583 11.9167C12.4583 11.342 12.2301 10.7909 11.8237 10.3846C11.4174 9.97827 10.8663 9.75 10.2917 9.75C9.71703 9.75 9.16593 9.97827 8.7596 10.3846C8.35327 10.7909 8.125 11.342 8.125 11.9167C8.125 12.4913 8.35327 13.0424 8.7596 13.4487C9.16593 13.8551 9.71703 14.0833 10.2917 14.0833Z" fill="#D9D9D9"/>
</svg>
