<svg width="12" height="15" viewBox="0 0 12 15" fill="none" xmlns="http://www.w3.org/2000/svg">
<path d="M8.35709 1.13154L8.57018 2.69231H11.4545C11.5992 2.69231 11.7379 2.75309 11.8402 2.86128C11.9425 2.96948 12 3.11622 12 3.26923C12 3.42224 11.9425 3.56898 11.8402 3.67718C11.7379 3.78537 11.5992 3.84615 11.4545 3.84615H10.8953L10.2604 11.6808C10.2218 12.1577 10.1905 12.55 10.1404 12.8669C10.0895 13.1969 10.0116 13.4923 9.85964 13.7662C9.62096 14.1963 9.26612 14.541 8.84073 14.7562C8.57018 14.8923 8.28509 14.9485 7.96945 14.9746C7.66618 15 7.29455 15 6.84218 15H5.15782C4.70545 15 4.33382 15 4.03055 14.9746C3.71491 14.9485 3.42982 14.8923 3.15927 14.7562C2.73388 14.541 2.37904 14.1963 2.14036 13.7662C1.98764 13.4923 1.91127 13.1969 1.85964 12.8669C1.80945 12.5492 1.77818 12.1577 1.73964 11.6808L1.10473 3.84615H0.545455C0.400791 3.84615 0.262052 3.78537 0.15976 3.67718C0.0574673 3.56898 0 3.42224 0 3.26923C0 3.11622 0.0574673 2.96948 0.15976 2.86128C0.262052 2.75309 0.400791 2.69231 0.545455 2.69231H3.42982L3.64291 1.13154L3.65091 1.08462C3.78327 0.476923 4.27636 0 4.89455 0H7.10545C7.72364 0 8.21673 0.476923 8.34909 1.08462L8.35709 1.13154ZM4.53164 2.69231H7.46764L7.28146 1.32615C7.24655 1.19769 7.15782 1.15385 7.10473 1.15385H4.89527C4.84218 1.15385 4.75345 1.19769 4.71855 1.32615L4.53164 2.69231ZM5.45455 6.34615C5.45455 6.19314 5.39708 6.0464 5.29479 5.93821C5.19249 5.83001 5.05375 5.76923 4.90909 5.76923C4.76443 5.76923 4.62569 5.83001 4.5234 5.93821C4.4211 6.0464 4.36364 6.19314 4.36364 6.34615V10.1923C4.36364 10.3453 4.4211 10.4921 4.5234 10.6003C4.62569 10.7084 4.76443 10.7692 4.90909 10.7692C5.05375 10.7692 5.19249 10.7084 5.29479 10.6003C5.39708 10.4921 5.45455 10.3453 5.45455 10.1923V6.34615ZM7.63636 6.34615C7.63636 6.19314 7.5789 6.0464 7.4766 5.93821C7.37431 5.83001 7.23557 5.76923 7.09091 5.76923C6.94625 5.76923 6.80751 5.83001 6.70521 5.93821C6.60292 6.0464 6.54545 6.19314 6.54545 6.34615V10.1923C6.54545 10.3453 6.60292 10.4921 6.70521 10.6003C6.80751 10.7084 6.94625 10.7692 7.09091 10.7692C7.23557 10.7692 7.37431 10.7084 7.4766 10.6003C7.5789 10.4921 7.63636 10.3453 7.63636 10.1923V6.34615Z" fill="white"/>
</svg>
